<svg width="49" height="39" viewBox="0 0 49 39" fill="none"
    xmlns="http://www.w3.org/2000/svg">
    <g clip-path="url(#clip0_41_2351)">
        <path d="M27.682 25.1793L38.429 19.025C38.4626 11.4914 32.4658 5.41035 25.0346 5.44255C21.6882 5.45703 18.4562 6.73527 15.9695 9.02771C16.1034 9.05836 27.682 25.1793 27.682 25.1793Z" fill="#0364B8"/>
        <path d="M21.1688 12.0353L21.168 12.0366C19.7909 10.5821 18.0366 9.55059 16.1033 9.05858C16.0586 9.04716 16.014 9.0388 15.9693 9.02793C10.2021 7.62888 4.3669 11.2446 2.93606 17.1039C2.41702 19.2293 2.53833 21.4581 3.28422 23.5015L16.5878 25.1594L28.5449 19.5956L21.1688 12.0353Z" fill="#0078D4"/>
        <path d="M38.4288 19.0252C38.243 18.964 38.0554 18.9065 37.8632 18.8573C36.7099 18.5609 35.5069 18.5081 34.3284 18.7022L34.3284 18.7012L28.5448 19.5955L32.4352 28.2758L42.0525 33.4409C45.3437 29.8278 45.1459 24.2196 41.6107 20.9147C40.6972 20.0607 39.6122 19.4165 38.4288 19.0252L38.4288 19.0252L38.4288 19.0252Z" fill="#1490DF"/>
        <path d="M3.28418 23.5013C4.49856 26.8407 7.25444 29.3509 10.6613 30.221L33.4417 36.0518C36.5533 36.8492 39.8606 35.8465 42.0526 33.441L28.5448 19.5954L3.28418 23.5013Z" fill="#28A8EA"/>
    </g>
    <defs>
        <clipPath id="clip0_41_2351">
            <rect width="43" height="28" fill="white" transform="matrix(0.968769 0.247965 -0.249046 0.968492 7.22083 0.437744)"/>
        </clipPath>
    </defs>
</svg>
