<svg width="48" height="32" viewBox="0 0 48 32" fill="none" xmlns="http://www.w3.org/2000/svg">
<path d="M28.8733 21.2498L38.5334 11.8217C36.5268 3.83662 28.5573 -0.9765 20.7331 1.07135C17.2096 1.99354 14.1492 4.22268 12.1494 7.32362C12.2989 7.31977 28.8733 21.2498 28.8733 21.2498Z" fill="#0364B8"/>
<path d="M18.4455 9.0984L18.445 9.10003C16.5991 7.93329 14.4704 7.31658 12.2991 7.31959C12.249 7.31959 12.1997 7.32284 12.1496 7.32344C5.69126 7.4051 0.520559 12.8144 0.600525 19.4055C0.629512 21.7964 1.36152 24.1233 2.70163 26.0845L17.174 24.2347L28.2697 15.1039L18.4455 9.0984Z" fill="#0078D4"/>
<path d="M38.533 11.8216C38.3206 11.8071 38.1072 11.7971 37.8913 11.7971C36.5953 11.7958 35.3129 12.066 34.1233 12.5908L34.1231 12.5898L28.269 15.1039L34.7227 23.2397L46.2602 26.1019C48.75 21.3847 47.0213 15.5008 42.3991 12.9598C41.2048 12.3032 39.8865 11.9152 38.533 11.8217V11.8216H38.533Z" fill="#1490DF"/>
<path d="M2.70166 26.0846C4.88686 29.291 8.47219 31.2019 12.2992 31.1998H37.8919C41.388 31.2008 44.6023 29.243 46.2609 26.1021L28.2697 15.104L2.70166 26.0846Z" fill="#28A8EA"/>
</svg>
