<svg viewBox="0 0 42 42" fill="none"
    xmlns="http://www.w3.org/2000/svg">
    <path d="M21.0991 0.268066C9.702 0.268066 0.462402 9.50741 0.462402 20.9045C0.462402 32.302 9.702 41.5406 21.0991 41.5406C32.4974 41.5406 41.736 32.302 41.736 20.9045C41.736 9.50815 32.4974 0.269052 21.0988 0.269052L21.0991 0.268066ZM30.5629 30.0317C30.1933 30.6379 29.3998 30.8301 28.7936 30.458C23.9483 27.4984 17.8487 26.8281 10.6653 28.4693C9.97307 28.6271 9.28307 28.1933 9.12536 27.5009C8.9669 26.8084 9.39889 26.1184 10.0928 25.9607C17.9539 24.164 24.6969 24.938 30.1366 28.2623C30.7428 28.6344 30.935 29.4255 30.5629 30.0317ZM33.0888 24.4119C32.6231 25.1697 31.6324 25.4087 30.8759 24.943C25.3288 21.5326 16.8731 20.5452 10.3119 22.5368C9.46099 22.7938 8.56227 22.3143 8.30401 21.4649C8.04772 20.6139 8.52752 19.7169 9.37696 19.4582C16.8716 17.1842 26.1888 18.2857 32.559 22.2002C33.3155 22.666 33.5546 23.6566 33.0888 24.4121V24.4119ZM33.3057 18.5607C26.6546 14.6102 15.6811 14.247 9.33088 16.1743C8.31116 16.4836 7.23278 15.9079 6.92376 14.8882C6.61474 13.868 7.18991 12.7903 8.21037 12.4803C15.5 10.2674 27.6181 10.6949 35.2756 15.2408C36.1948 15.7852 36.4954 16.9698 35.9508 17.8857C35.4087 18.8029 34.2209 19.1053 33.3067 18.5607H33.3057Z" fill="white"/>
</svg>
