<svg width="46" height="32" viewBox="0 0 46 32" fill="none"
    xmlns="http://www.w3.org/2000/svg">
    <path d="M44.473 5.5878C43.9541 3.71581 42.4343 2.2398 40.5068 1.7358C36.9854 0.799805 22.8998 0.799805 22.8998 0.799805C22.8998 0.799805 8.8142 0.799805 5.2928 1.6998C3.40236 2.2038 1.84553 3.71581 1.32659 5.5878C0.399902 9.0078 0.399902 16.0998 0.399902 16.0998C0.399902 16.0998 0.399902 23.2278 1.32659 26.6118C1.84553 28.4838 3.36529 29.9598 5.2928 30.4638C8.85127 31.3998 22.8998 31.3998 22.8998 31.3998C22.8998 31.3998 36.9854 31.3998 40.5068 30.4998C42.4343 29.9958 43.9541 28.5198 44.473 26.6478C45.3997 23.2278 45.3997 16.1358 45.3997 16.1358C45.3997 16.1358 45.4368 9.0078 44.473 5.5878Z" fill="red"/>
    <path d="M30.1278 16.0999L18.4146 9.54785V22.6519L30.1278 16.0999Z" fill="white"/>
</svg>
